{"title":"Filly Brown 2012 BRRip 480p x264  AAC - VYTO [P2PDL]","uid":8628760,"size":375104142,"categoryP":"video","categoryS":"movies","magnet":"?xt=urn:btih:92280b40ee4744edeba47d090fe16bce76c07d8e&amp;dn=Filly+Brown+2012+BRRip+480p+x264++AAC+-+VYTO+%5BP2PDL%5D&amp;tr=udp%3A%2F%2Ftracker.openbittorrent.com%3A80&amp;tr=udp%3A%2F%2Fopen.demonii.com%3A1337&amp;tr=udp%3A%2F%2Ftracker.coppersurfer.tk%3A6969&amp;tr=udp%3A%2F%2Fexodus.desync.com%3A6969","seeders":1,"leechers":0,"uploader":"ValidusVyto","files":-1,"time":1372582068,"description":"_______ Visit us at our Semi Public Bittorrent Community ________\n  &lt;a href=&quot;\nhttp://p2pdl.com&quot; rel=&quot;nofollow&quot; target=&quot;_NEW&quot;&gt;\nhttp://p2pdl.com&lt;/a&gt;  _____________________________ &lt;a href=&quot; http://p2pdl.com&quot; rel=&quot;nofollow&quot; target=&quot;_NEW&quot;&gt; http://p2pdl.com&lt;/a&gt;\n\n\nFilly Brown 2012 BRRip 480p x264  AAC - VYTO\n\n\nGenre: Drama | Music \nPlot: A promising hip-hop rhymer from Los Angeles finds herself in a gray area\nwhen a record producer offers her a compromising shot at stardom.  \nDirector: Youssef Delara, Michael D. Olmos\nStars: Gina Rodriguez, Jenni Rivera, Lou Diamond Phillips.\nRated: R for language, some drug use and violence.\n\n\nInfo: &lt;a href=&quot;\nhttp://www.imdb.com/title/tt1869425/&quot; rel=&quot;nofollow&quot; target=&quot;_NEW&quot;&gt;\nhttp://www.imdb.com/title/tt1869425/&lt;/a&gt;\n\nTrailer:\n\n\nFormat                         : MPEG-4\nFile size                      : 352 MiB\nDuration                       : 1h 42mn\nOverall bit rate               : 482 Kbps\nSource                         : LIMITED.720p.BluRay.x264-GECKOS\n\nVideo\nFormat                         : AVC\nBit rate                       : 439 Kbps\nWidth                          : 720 pixels\nHeight                         : 304 pixels\nDisplay aspect ratio           : 2.35:1\nFrame rate mode                : Constant\nFrame rate                     : 24.000 fpsssive\nBits/(Pixel*Frame)             : 0.084\nStream size                    : 320 MiB (91%)\nWriting library                : x264 core 130 r2273\n\nAudio\nFormat                         : AAC\nBit rate mode                  : Variable\nBit rate                       : 40.0 Kbps\nChannel(s)                     : 2 channels\nChannel positions              : Front: L R\nSampling rate                  : 44.1 KHz\nStream size                    : 29.2 MiB (8%)\nLanguage                       : English\n\nSubtitle                       : N/a\n &lt;a href=&quot;\nhttp://ultraimg.com/images/Gn6P.png&quot; rel=&quot;nofollow&quot; target=&quot;_NEW&quot;&gt;\nhttp://ultraimg.com/images/Gn6P.png&lt;/a&gt; &lt;a href=&quot;\nhttp://ultraimg.com/images/GNHnO.png&quot; rel=&quot;nofollow&quot; target=&quot;_NEW&quot;&gt;\nhttp://ultraimg.com/images/GNHnO.png&lt;/a&gt; &lt;a href=&quot;\nhttp://ultraimg.com/images/UJ2vu.png&quot; rel=&quot;nofollow&quot; target=&quot;_NEW&quot;&gt;\nhttp://ultraimg.com/images/UJ2vu.png&lt;/a&gt; &lt;a href=&quot;\nhttp://ultraimg.com/images/qwY3g.png&quot; rel=&quot;nofollow&quot; target=&quot;_NEW&quot;&gt;\nhttp://ultraimg.com/images/qwY3g.png&lt;/a&gt; &lt;a href=&quot;\nhttp://ultraimg.com/images/ByNAC.png&quot; rel=&quot;nofollow&quot; target=&quot;_NEW&quot;&gt;\nhttp://ultraimg.com/images/ByNAC.png&lt;/a&gt; &lt;a href=&quot;\nhttp://ultraimg.com/images/sL1lx.png&quot; rel=&quot;nofollow&quot; target=&quot;_NEW&quot;&gt;\nhttp://ultraimg.com/images/sL1lx.png&lt;/a&gt; &lt;a href=&quot;\nhttp://ultraimg.com/images/GEY94.png&quot; rel=&quot;nofollow&quot; target=&quot;_NEW&quot;&gt;\nhttp://ultraimg.com/images/GEY94.png&lt;/a&gt; &lt;a href=&quot;\nhttp://ultraimg.com/images/1FMc2.png&quot; rel=&quot;nofollow&quot; target=&quot;_NEW&quot;&gt;\nhttp://ultraimg.com/images/1FMc2.png&lt;/a&gt;\n\n\n----------------------------------------------------------------------------------------------------\n\n\nEncoded using revolutionary 10bit encoding, which enables us to provide you more crispier \nand sharper images at small sizes, just make sure you follow our instructions without a fault.\nRecommend to you to use latest version of VLC player. Install K-Lite Codec Pack or shark007 codecs\nin case of any kind of problem in playback (For non-VLC Media Player users). Alternatively, install\nCore AVC codecs, the fastest decoder that there is coupled with Community Center Codec Pack and play\non Windows Media Player Classic. Check sample to be sure.\nEnjoy!\n\nEncoder Notes:Looking For Early Access To Anything You Can Provide DVDScr, R5, DVDR, BluRay, Direct\nAudio, Music Releases and Seedboxes. We require dedicated servers, so as to do more \nand fast releases of movies.\nIf You Got anything to offer please contact us at &quot;&lt;a class=&quot;__cf_email__&quot; href=&quot;/cdn-cgi/l/email-protection&quot; data-cfemail=&quot;274448495346445367571557434b0944484a&quot;&gt;[email&amp;#160;protected]&lt;/a&gt;&lt;script cf-hash='f9e31' type=&quot;text/javascript&quot;&gt;\n/* &lt;![CDATA[ */!function(){try{var t=&quot;currentScript&quot;in document?document.currentScript:function(){for(var t=document.getElementsByTagName(&quot;script&quot;),e=t.length;e--;)if(t[e].getAttribute(&quot;cf-hash&quot;))return t[e]}();if(t&amp;&amp;t.previousSibling){var e,r,n,i,c=t.previousSibling,a=c.getAttribute(&quot;data-cfemail&quot;);if(a){for(e=&quot;&quot;,r=parseInt(a.substr(0,2),16),n=2;a.length-n;n+=2)i=parseInt(a.substr(n,2),16)^r,e+=String.fromCharCode(i);e=document.createTextNode(e),c.parentNode.replaceChild(e,c)}}}catch(u){}}();/* ]]&gt; */&lt;/script&gt;&quot;.\n\nFace book Fan Page:   &lt;a href=&quot;\nhttp://fbl.me/BC&quot; rel=&quot;nofollow&quot; target=&quot;_NEW&quot;&gt;\nhttp://fbl.me/BC&lt;/a&gt;","torrent":{"xt":"urn:btih:92280b40ee4744edeba47d090fe16bce76c07d8e","amp;dn":"Filly+Brown+2012+BRRip+480p+x264++AAC+-+VYTO+%5BP2PDL%5D","amp;tr":["udp%3A%2F%2Ftracker.openbittorrent.com%3A80","udp%3A%2F%2Fopen.demonii.com%3A1337","udp%3A%2F%2Ftracker.coppersurfer.tk%3A6969","udp%3A%2F%2Fexodus.desync.com%3A6969"],"infoHash":"92280b40ee4744edeba47d090fe16bce76c07d8e","infoHashBuffer":{"type":"Buffer","data":[146,40,11,64,238,71,68,237,235,164,125,9,15,225,107,206,118,192,125,142]},"announce":[],"urlList":[]}}